<svg width="205" height="35" viewBox="0 0 205 35" fill="none" xmlns="http://www.w3.org/2000/svg">
<path d="M14.8486 33.4299C21.793 33.4299 25.9233 29.7255 25.9233 24.44C25.9233 20.1031 22.8823 17.483 17.935 17.0764V16.8957C21.2483 16.3084 23.7447 13.0106 23.7447 9.6224C23.7447 5.15002 21.1121 2.25878 14.1223 2.25878H8.58497C7.04177 2.25878 2.13983 2.34913 0.642016 2.52983C0.369686 3.16229 0.233521 4.15616 0.233521 4.69826C2.77527 4.74344 3.90998 5.33072 3.90998 7.72503V26.1567C3.90998 27.2861 3.95536 29.0931 4.27308 30.7646L0.914346 31.5777C0.687404 32.165 0.596628 33.0234 0.596628 33.4299H14.8486ZM12.6699 15.8566H8.44881V4.96932H12.8515C16.9364 4.96932 18.8427 6.95704 18.8427 10.3452C18.8427 13.372 16.7549 15.8566 12.6699 15.8566ZM14.2585 30.9905H12.3522C9.67429 30.9905 8.44881 30.4484 8.44881 27.4668V18.5672H13.9862C18.3435 18.5672 20.8852 20.4646 20.8852 24.3948C20.8852 28.2799 18.525 30.9905 14.2585 30.9905ZM35.8227 33.4299C37.4566 33.4299 38.9998 33.0234 38.7275 31.3519C36.1858 31.3067 35.278 30.7194 35.278 28.3251V4.33686C35.278 2.84606 35.0964 1.31009 34.6426 0L28.1066 0.72281C27.8797 1.31009 27.7889 2.16843 27.7889 2.48466C30.1037 2.57501 30.9207 3.25264 30.9207 5.51142V26.247C30.9207 27.3764 30.9661 29.1834 31.2838 30.8549L28.5151 31.6681C28.2882 32.2554 28.152 33.1137 28.152 33.4299H35.8227ZM60.2917 34.1076L64.4674 33.701C66.1014 33.5203 66.8276 33.2041 66.646 31.5777C63.3327 31.3519 63.1057 30.6742 63.1057 27.3764V15.7211C63.1057 14.4562 62.9696 12.9202 62.4703 11.6553L56.0252 12.3781C55.7982 12.9654 55.7074 13.8237 55.7074 14.14C58.0222 14.2303 58.7485 14.908 58.7485 17.1667V26.8795C57.1599 29.8611 54.5727 31.2615 52.2125 31.2615C49.6708 31.2615 47.3106 29.7707 47.3106 25.5242V15.7211C47.3106 14.4562 47.1744 12.9202 46.6752 11.6553L40.23 12.3781C40.0031 12.9654 39.9123 13.8237 39.9123 14.14C42.2271 14.2303 42.9533 14.908 42.9533 17.1667V25.976C42.9533 31.4874 47.0837 34.1076 51.1232 34.1076C54.3004 34.1076 56.6606 33.0234 58.7031 30.358H58.93C59.2931 32.2554 59.7016 33.2492 60.2917 34.1076ZM80.4034 34.1076C85.4415 34.1076 88.7094 31.5777 88.7094 29.9063C88.7094 29.2738 88.3917 28.8672 87.7563 28.6413C85.6684 30.6291 83.4444 31.4874 81.3565 31.4874C76.6361 31.4874 73.6405 28.1896 73.6405 23.0847V22.5878H89.0272C89.0725 22.136 89.1179 21.6391 89.1179 21.1874C89.1179 14.9531 84.4883 11.6553 79.6318 11.6553C72.7781 11.6553 69.0109 17.1667 69.0109 22.7685C69.0109 28.6413 72.642 34.1076 80.4034 34.1076ZM84.6245 20.3742H73.8221C74.3667 16.8505 76.0915 14.14 79.7225 14.14C82.5366 14.14 85.033 16.3084 84.6245 20.3742ZM113.224 33.8817L115.13 33.4299L122.392 14.7724L124.616 14.0044C124.843 13.643 125.025 12.5588 125.025 12.3329H118.126C117.899 12.6943 117.717 13.7786 117.717 14.0044L119.851 14.7724L114.949 27.015H114.858L109.139 11.7005L106.779 12.1974L101.468 27.015H101.377L96.7933 14.6821L98.8357 14.0044C99.0627 13.643 99.2442 12.5588 99.2442 12.3329H90.4843C90.2573 12.6943 90.0758 13.7786 90.0758 14.0044L92.3452 14.7724L99.7435 33.8817L101.695 33.4299L107.369 18.2058L113.224 33.8817ZM143.276 34.1076C145.318 34.1076 146.634 33.2041 146.589 31.7585C143.775 31.8036 143.366 31.2615 143.366 27.4668V18.7479C143.366 14.4562 140.325 11.6553 135.696 11.6553C134.153 11.6553 132.564 12.0167 131.112 12.6492L128.978 11.6553C128.025 13.1913 127.39 15.0887 127.39 16.3536C127.39 18.0251 128.57 18.8834 130.34 18.5672L131.112 15.179C132.065 14.5014 133.29 14.14 134.606 14.14C137.284 14.14 139.009 15.7663 139.009 18.2961V22.0457C137.421 21.4132 135.378 21.0067 133.517 21.0067C128.797 21.0067 125.529 23.7624 125.529 27.7378C125.529 31.4422 128.57 34.1076 132.745 34.1076C135.242 34.1076 137.92 32.662 139.1 30.8098H139.236C139.508 32.7975 141.052 34.1076 143.276 34.1076ZM133.971 31.1712C131.52 31.1712 129.75 29.59 129.75 27.3764C129.75 24.8918 131.702 23.2654 134.743 23.2654C136.15 23.2654 137.874 23.672 139.009 24.2141V28.4155C137.965 29.9514 135.832 31.1712 133.971 31.1712ZM157.351 34.1076C159.983 34.1076 162.48 32.8427 162.48 31.4422C162.48 30.9453 162.253 30.5387 161.844 30.2677C160.709 30.9453 159.847 31.397 158.622 31.397C156.897 31.397 155.944 30.4935 155.944 27.1505V14.9983L159.439 14.7724C161.299 14.6369 162.026 13.9593 162.026 12.3329H155.944V6.23423C155.671 6.18906 155.354 6.14388 155.081 6.14388C153.538 6.14388 152.54 6.95704 152.358 8.44784L151.904 12.3329L148.681 13.0106C148.455 13.5979 148.318 14.7724 148.318 15.0887H151.586V27.6475C151.586 32.5716 154.446 34.1076 157.351 34.1076ZM176.418 34.1076C181.457 34.1076 184.725 31.5777 184.725 29.9063C184.725 29.2738 184.407 28.8672 183.771 28.6413C181.684 30.6291 179.459 31.4874 177.372 31.4874C172.651 31.4874 169.656 28.1896 169.656 23.0847V22.5878H185.042C185.088 22.136 185.133 21.6391 185.133 21.1874C185.133 14.9531 180.503 11.6553 175.647 11.6553C168.793 11.6553 165.026 17.1667 165.026 22.7685C165.026 28.6413 168.657 34.1076 176.418 34.1076ZM180.64 20.3742H169.837C170.382 16.8505 172.107 14.14 175.738 14.14C178.552 14.14 181.048 16.3084 180.64 20.3742ZM195.804 33.4299C197.438 33.4299 198.981 33.0234 198.709 31.3519C195.713 31.3519 194.851 30.4484 194.851 28.3251V20.6453C195.895 17.483 198.028 15.7211 200.252 15.7211C201.205 15.7211 202.113 15.9922 203.111 16.5794C204.019 16.0825 204.428 15.1338 204.428 14.3207C204.428 12.9654 203.202 11.6553 201.024 11.6553C198.845 11.6553 196.666 13.3268 194.805 16.9409H194.624C194.624 14.6821 194.261 13.0557 193.761 11.7457L187.77 12.4685C187.543 13.0558 187.453 13.9141 187.453 14.2303C189.767 14.3207 190.494 14.9983 190.494 17.2119V26.247C190.494 27.3764 190.539 29.1834 190.857 30.8549L188.088 31.6681C187.861 32.2554 187.725 33.1137 187.725 33.4299H195.804Z" fill="currentColor"/>
</svg>
