<svg width="900" height="600" viewBox="0 0 900 600" fill="none" xmlns="http://www.w3.org/2000/svg">
<path d="M142.151 356.412C166.541 356.412 181.048 343.402 181.048 324.838C181.048 309.606 170.367 300.404 152.991 298.976V298.341C164.628 296.278 173.396 284.696 173.396 272.796C173.396 257.088 164.15 246.933 139.6 246.933H120.152C114.732 246.933 97.5155 247.251 92.2549 247.885C91.2984 250.107 90.8202 253.597 90.8202 255.501C99.7473 255.66 103.733 257.723 103.733 266.132V330.867C103.733 334.834 103.892 341.181 105.008 347.051L93.2114 349.907C92.4143 351.97 92.0955 354.985 92.0955 356.412H142.151ZM134.499 294.691H119.674V256.453H135.137C149.484 256.453 156.179 263.434 156.179 275.334C156.179 285.965 148.846 294.691 134.499 294.691ZM140.079 347.845H133.383C123.978 347.845 119.674 345.941 119.674 335.469V304.212H139.122C154.426 304.212 163.353 310.876 163.353 324.679C163.353 338.325 155.063 347.845 140.079 347.845ZM215.816 356.412C221.555 356.412 226.975 354.985 226.019 349.114C217.092 348.955 213.903 346.893 213.903 338.483V254.232C213.903 248.996 213.265 243.601 211.672 239L188.716 241.539C187.919 243.601 187.6 246.616 187.6 247.727C195.73 248.044 198.6 250.424 198.6 258.357V331.185C198.6 335.151 198.759 341.498 199.875 347.368L190.151 350.225C189.354 352.287 188.875 355.302 188.875 356.412H215.816ZM301.756 358.793L316.422 357.364C322.161 356.73 324.712 355.619 324.074 349.907C312.437 349.114 311.64 346.734 311.64 335.151V294.216C311.64 289.773 311.162 284.378 309.408 279.936L286.771 282.474C285.974 284.537 285.655 287.552 285.655 288.662C293.785 288.98 296.336 291.36 296.336 299.293V333.406C290.757 343.878 281.67 348.796 273.38 348.796C264.454 348.796 256.164 343.561 256.164 328.646V294.216C256.164 289.773 255.686 284.378 253.932 279.936L231.296 282.474C230.499 284.537 230.18 287.552 230.18 288.662C238.31 288.98 240.86 291.36 240.86 299.293V330.233C240.86 349.59 255.367 358.793 269.555 358.793C280.714 358.793 289.003 354.985 296.177 345.623H296.974C298.249 352.287 299.684 355.778 301.756 358.793ZM372.392 358.793C390.087 358.793 401.565 349.907 401.565 344.037C401.565 341.815 400.449 340.387 398.217 339.594C390.884 346.575 383.073 349.59 375.74 349.59C359.161 349.59 348.64 338.007 348.64 320.078V318.333H402.681C402.84 316.746 402.999 315.001 402.999 313.414C402.999 291.518 386.739 279.936 369.682 279.936C345.611 279.936 332.38 299.293 332.38 318.967C332.38 339.594 345.133 358.793 372.392 358.793ZM387.218 310.558H349.278C351.19 298.182 357.248 288.662 370.001 288.662C379.885 288.662 388.652 296.278 387.218 310.558ZM487.665 357.999L494.359 356.412L519.865 290.884L527.676 288.186C528.473 286.917 529.112 283.109 529.112 282.316H504.882C504.084 283.585 503.445 287.393 503.445 288.186L510.94 290.884L493.723 333.882H493.404L473.317 280.094L465.029 281.84L446.375 333.882H446.056L429.957 290.566L437.13 288.186C437.928 286.917 438.565 283.109 438.565 282.316H407.799C407.001 283.585 406.364 287.393 406.364 288.186L414.334 290.884L440.319 357.999L447.173 356.412L467.101 302.942L487.665 357.999ZM593.213 358.793C600.385 358.793 605.007 355.619 604.849 350.542C594.966 350.7 593.529 348.796 593.529 335.469V304.846C593.529 289.773 582.849 279.936 566.591 279.936C561.172 279.936 555.591 281.205 550.491 283.426L542.996 279.936C539.649 285.33 537.419 291.994 537.419 296.437C537.419 302.308 541.563 305.322 547.779 304.212L550.491 292.312C553.838 289.932 558.14 288.662 562.763 288.662C572.168 288.662 578.227 294.374 578.227 303.259V316.429C572.649 314.207 565.474 312.78 558.938 312.78C542.36 312.78 530.882 322.458 530.882 336.421C530.882 349.431 541.563 358.793 556.226 358.793C564.996 358.793 574.402 353.715 578.546 347.21H579.024C579.979 354.191 585.402 358.793 593.213 358.793ZM560.532 348.479C551.924 348.479 545.707 342.926 545.707 335.151C545.707 326.425 552.563 320.713 563.244 320.713C568.185 320.713 574.24 322.141 578.227 324.045V338.801C574.56 344.195 567.068 348.479 560.532 348.479ZM642.647 358.793C651.892 358.793 660.661 354.35 660.661 349.431C660.661 347.686 659.864 346.258 658.428 345.306C654.441 347.686 651.414 349.272 647.111 349.272C641.053 349.272 637.706 346.099 637.706 334.358V291.677L649.981 290.884C656.514 290.408 659.067 288.028 659.067 282.316H637.706V260.896C636.747 260.737 635.634 260.579 634.675 260.579C629.255 260.579 625.75 263.434 625.111 268.67L623.517 282.316L612.197 284.696C611.403 286.758 610.922 290.884 610.922 291.994H622.4V336.103C622.4 353.398 632.444 358.793 642.647 358.793ZM709.614 358.793C727.312 358.793 738.79 349.907 738.79 344.037C738.79 341.815 737.673 340.387 735.44 339.594C728.11 346.575 720.295 349.59 712.965 349.59C696.384 349.59 685.865 338.007 685.865 320.078V318.333H739.904C740.065 316.746 740.223 315.001 740.223 313.414C740.223 291.518 723.962 279.936 706.907 279.936C682.834 279.936 669.604 299.293 669.604 318.967C669.604 339.594 682.356 358.793 709.614 358.793ZM724.443 310.558H686.501C688.415 298.182 694.473 288.662 707.226 288.662C717.109 288.662 725.876 296.278 724.443 310.558ZM777.702 356.412C783.441 356.412 788.86 354.985 787.905 349.114C777.382 349.114 774.355 345.941 774.355 338.483V311.51C778.021 300.404 785.513 294.216 793.324 294.216C796.671 294.216 799.86 295.168 803.365 297.23C806.555 295.485 807.991 292.153 807.991 289.297C807.991 284.537 803.685 279.936 796.036 279.936C788.382 279.936 780.729 285.806 774.193 298.5H773.557C773.557 290.566 772.283 284.854 770.526 280.253L749.485 282.792C748.688 284.855 748.372 287.869 748.372 288.98C756.499 289.297 759.052 291.677 759.052 299.452V331.185C759.052 335.151 759.21 341.498 760.327 347.368L750.602 350.225C749.804 352.287 749.327 355.302 749.327 356.412H777.702Z" fill="currentColor"/>
</svg>
