<svg width="900" height="600" viewBox="0 0 900 600" fill="none" xmlns="http://www.w3.org/2000/svg">
<g clip-path="url(#clip0_1_2)">
<path opacity="0.988" fill-rule="evenodd" clip-rule="evenodd" d="M170.5 236.5C174.5 236.5 178.5 236.5 182.5 236.5C188.454 238.957 192.621 243.29 195 249.5C195.5 259.494 195.666 269.494 195.5 279.5C207.167 279.5 218.833 279.5 230.5 279.5C230.168 268.147 230.501 256.814 231.5 245.5C265.854 263.044 276.354 290.044 263 326.5C255.778 339.557 245.278 348.89 231.5 354.5C230.667 342.848 230.167 331.181 230 319.5C227.901 310.416 223.067 303.249 215.5 298C200.395 291.114 185.062 284.781 169.5 279C160.865 274.739 156.865 267.739 157.5 258C157.383 248.057 161.716 240.891 170.5 236.5Z" fill="#E1010F"/>
<path opacity="0.992" fill-rule="evenodd" clip-rule="evenodd" d="M182.5 363.5C178.5 363.5 174.5 363.5 170.5 363.5C165.246 361.414 161.412 357.748 159 352.5C157.597 341.898 157.097 331.231 157.5 320.5C146.012 319.505 134.345 319.172 122.5 319.5C122.5 331.167 122.5 342.833 122.5 354.5C103.495 346.829 91.1614 333.163 85.5 313.5C85.5 304.833 85.5 296.167 85.5 287.5C90.8667 267.477 103.2 253.477 122.5 245.5C123.333 257.82 123.833 270.153 124 282.5C127.317 293.152 134.15 300.652 144.5 305C158.5 310.667 172.5 316.333 186.5 322C190.674 324.851 193.507 328.684 195 333.5C198.699 347.072 194.532 357.072 182.5 363.5Z" fill="#E10211"/>
<path opacity="0.634" fill-rule="evenodd" clip-rule="evenodd" class="superga" d="M813.5 258.5C813.5 262.167 813.5 265.833 813.5 269.5C807.382 276.888 800.882 277.222 794 270.5C790.4 262.421 792.567 256.588 800.5 253C806.029 252.226 810.362 254.059 813.5 258.5ZM808.5 270.5C808.756 268.207 808.423 266.041 807.5 264C810.167 262 810.167 260 807.5 258C804.24 257.216 801.073 257.383 798 258.5C797.501 262.486 797.334 266.486 797.5 270.5C793.519 266.114 793.519 261.614 797.5 257C803.681 253.593 808.514 255.093 812 261.5C812.686 265.284 811.519 268.284 808.5 270.5ZM801.5 260.5C802.978 260.238 804.311 260.571 805.5 261.5C804.833 261.833 804.167 262.167 803.5 262.5C802.287 262.253 801.62 261.586 801.5 260.5ZM808.5 270.5C804.94 274.255 801.273 274.255 797.5 270.5C798.833 270.5 800.167 270.5 801.5 270.5C801.5 268.833 801.5 267.167 801.5 265.5C804.91 265.384 806.244 267.05 805.5 270.5C806.5 270.5 807.5 270.5 808.5 270.5Z" />
<path opacity="0.954" fill-rule="evenodd" clip-rule="evenodd" class="superga" d="M808.5 270.5C807.5 270.5 806.5 270.5 805.5 270.5C806.244 267.05 804.91 265.384 801.5 265.5C801.5 267.167 801.5 268.833 801.5 270.5C800.167 270.5 798.833 270.5 797.5 270.5C797.334 266.486 797.501 262.486 798 258.5C801.073 257.383 804.24 257.217 807.5 258C810.167 260 810.167 262 807.5 264C808.423 266.041 808.756 268.208 808.5 270.5ZM801.5 260.5C801.62 261.586 802.287 262.253 803.5 262.5C804.167 262.167 804.833 261.833 805.5 261.5C804.311 260.571 802.978 260.238 801.5 260.5Z" />
<path opacity="0.985" fill-rule="evenodd" clip-rule="evenodd" class="superga" d="M322.5 259.5C334.266 258.309 344.433 261.642 353 269.5C355.933 274.124 357.266 279.124 357 284.5C351.928 285.471 346.762 285.805 341.5 285.5C341.93 282.138 340.93 279.305 338.5 277C330.427 271.866 322.927 272.366 316 278.5C314.206 283.633 315.706 287.133 320.5 289C328.868 290.873 337.201 292.873 345.5 295C354.687 298.192 359.353 304.692 359.5 314.5C358.914 329.921 350.914 338.421 335.5 340C323.891 342.058 313.725 339.225 305 331.5C301.488 327.308 299.321 322.474 298.5 317C298.388 315.338 299.054 314.171 300.5 313.5C305.1 314.444 309.767 314.777 314.5 314.5C315.19 321.026 318.857 324.86 325.5 326C332.426 327.316 338.259 325.482 343 320.5C343.893 317.084 343.393 313.917 341.5 311C338.785 309.092 335.785 307.759 332.5 307C325.015 305.97 317.682 304.303 310.5 302C300.784 295.638 297.618 286.805 301 275.5C304.961 265.689 312.127 260.355 322.5 259.5Z" />
<path opacity="0.979" fill-rule="evenodd" clip-rule="evenodd" class="superga" d="M683.5 259.5C697.065 257.852 708.232 262.185 717 272.5C719.409 276.892 720.909 281.558 721.5 286.5C716.489 286.666 711.489 286.499 706.5 286C703.305 278.305 697.471 274.138 689 273.5C676.663 275.511 670.33 282.845 670 295.5C668.227 306.439 671.394 315.606 679.5 323C692.898 329.034 702.231 325.201 707.5 311.5C702.208 310.505 696.875 310.172 691.5 310.5C691.197 305.57 691.531 300.737 692.5 296C701.833 295.333 711.167 295.333 720.5 296C721.49 310.088 721.824 324.255 721.5 338.5C718.102 338.82 714.768 338.487 711.5 337.5C710.965 335.339 710.132 333.339 709 331.5C704.967 336.269 699.8 339.102 693.5 340C672.819 341.386 659.986 331.886 655 311.5C651.388 293.757 655.888 278.59 668.5 266C673.142 262.74 678.142 260.573 683.5 259.5Z" />
<path opacity="0.98" fill-rule="evenodd" clip-rule="evenodd" class="superga" d="M371.5 261.5C376.833 261.5 382.167 261.5 387.5 261.5C387.333 279.503 387.5 297.503 388 315.5C389.701 322.195 394.034 325.529 401 325.5C408.594 325.553 412.927 321.886 414 314.5C414.5 296.837 414.667 279.17 414.5 261.5C419.833 261.5 425.167 261.5 430.5 261.5C430.667 280.503 430.5 299.503 430 318.5C425.976 333.035 416.309 340.369 401 340.5C388 340.675 378.667 335.008 373 323.5C371.547 302.887 371.047 282.221 371.5 261.5Z" />
<path opacity="0.998" fill-rule="evenodd" clip-rule="evenodd" class="superga" d="M446.5 261.5C460.504 261.333 474.504 261.5 488.5 262C497.26 264.992 502.093 271.159 503 280.5C504.135 289.292 502.135 297.292 497 304.5C494.331 307.164 491.164 308.998 487.5 310C479.507 310.5 471.507 310.666 463.5 310.5C463.806 319.554 463.472 328.554 462.5 337.5C457.281 338.804 452.114 338.804 447 337.5C446.5 312.169 446.333 286.835 446.5 261.5ZM463.5 275.5C469.842 275.334 476.175 275.5 482.5 276C485.918 277.908 487.584 280.908 487.5 285C487.553 289.795 485.553 293.461 481.5 296C475.509 296.499 469.509 296.666 463.5 296.5C463.5 289.5 463.5 282.5 463.5 275.5Z" />
<path opacity="0.988" fill-rule="evenodd" clip-rule="evenodd" class="superga" d="M514.5 261.5C532.5 261.5 550.5 261.5 568.5 261.5C568.5 266.167 568.5 270.833 568.5 275.5C556.167 275.5 543.833 275.5 531.5 275.5C531.5 280.833 531.5 286.167 531.5 291.5C542.833 291.5 554.167 291.5 565.5 291.5C565.5 296.167 565.5 300.833 565.5 305.5C554.167 305.5 542.833 305.5 531.5 305.5C531.5 311.5 531.5 317.5 531.5 323.5C544.413 323.178 557.246 323.511 570 324.5C570.772 328.89 570.606 333.223 569.5 337.5C551.269 338.825 533.102 338.825 515 337.5C514.5 312.169 514.333 286.836 514.5 261.5Z" />
<path opacity="0.986" fill-rule="evenodd" clip-rule="evenodd" class="superga" d="M584.5 260.5C599.873 260.121 615.206 260.621 630.5 262C639.067 265.776 643.401 272.443 643.5 282C643.291 289.583 640.291 295.75 634.5 300.5C637.224 302.066 639.058 304.399 640 307.5C640.333 315.167 640.667 322.833 641 330.5C643.023 332.769 643.856 335.436 643.5 338.5C638.489 338.666 633.489 338.499 628.5 338C628 337.5 627.5 337 627 336.5C625.76 328.243 625.093 319.909 625 311.5C624.5 311 624 310.5 623.5 310C615.611 308.565 607.611 308.065 599.5 308.5C599.5 318.5 599.5 328.5 599.5 338.5C594.238 338.805 589.072 338.471 584 337.5C583.177 311.761 583.343 286.094 584.5 260.5ZM599.5 275.5C607.507 275.334 615.507 275.5 623.5 276C628.186 280.305 628.686 285.138 625 290.5C624.097 291.701 622.931 292.535 621.5 293C614.174 293.5 606.841 293.666 599.5 293.5C599.5 287.5 599.5 281.5 599.5 275.5Z" />
<path opacity="0.993" fill-rule="evenodd" clip-rule="evenodd" class="superga" d="M756.5 261.5C762.868 261.17 769.202 261.504 775.5 262.5C785.091 287.538 793.758 312.871 801.5 338.5C796.489 338.666 791.489 338.499 786.5 338C784.025 333.42 782.025 328.586 780.5 323.5C770.856 322.502 761.19 322.168 751.5 322.5C750.63 326.577 749.463 330.577 748 334.5C747.535 335.931 746.701 337.097 745.5 338C740.511 338.499 735.511 338.666 730.5 338.5C738.884 312.734 747.55 287.067 756.5 261.5ZM765.5 280.5C766.117 280.611 766.617 280.944 767 281.5C769.94 290.437 773.107 299.27 776.5 308C769.833 308.667 763.167 308.667 756.5 308C760.001 298.998 763.001 289.831 765.5 280.5Z" />
<path opacity="0.094" fill-rule="evenodd" clip-rule="evenodd" class="superga" d="M157.5 320.5C146.167 320.5 134.833 320.5 123.5 320.5C123.828 332.012 123.495 343.346 122.5 354.5C122.5 342.833 122.5 331.167 122.5 319.5C134.345 319.172 146.012 319.505 157.5 320.5Z" fill="#EC3F52"/>
</g>
<defs>
<clipPath id="clip0_1_2">
<rect width="728" height="127" fill="white" transform="translate(86 237)"/>
</clipPath>
</defs>
<style>
.superga {
    fill: #0b1742;
}
.dark .superga {
    fill: #FFF;
}
</style>
</svg>
